<svg xmlns="http://www.w3.org/2000/svg" width="980" height="640" viewBox="0 0 980 640">
<style>
.t{font:700 28px Arial;fill:#0f172a}.s{font:15px Arial;fill:#475569}.l{font:700 15px Arial;fill:#0f172a;text-anchor:middle}.sm{font:12px Arial;fill:#475569;text-anchor:middle}
.b{rx:16;stroke-width:1.5}.c{fill:#e0f2fe;stroke:#38bdf8}.ln{stroke:#94a3b8;stroke-width:2;fill:none}
</style>
<rect width="100%" height="100%" fill="#f8fafc"/>
<text x="490" y="40" text-anchor="middle" class="t">MES Feature Map</text>
<text x="490" y="64" text-anchor="middle" class="s">Manufacturing, AI anomaly detection, and observability capabilities</text>
<rect x="390" y="270" width="200" height="100" class="b c"/><text x="490" y="315" class="l">Fabiq MES</text><text x="490" y="338" class="l">Integration Platform</text>
<rect x="120" y="90" width="180" height="72" class="b" fill="#DCFCE7" stroke="#22C55E"/><text x="210" y="120" class="l">Machine Status</text><text x="210" y="140" class="sm">running / idle / down</text><rect x="375" y="90" width="180" height="72" class="b" fill="#FEF3C7" stroke="#F59E0B"/><text x="465" y="120" class="l">Work Orders</text><text x="465" y="140" class="sm">planned vs actual</text><rect x="630" y="90" width="180" height="72" class="b" fill="#E0F2FE" stroke="#38BDF8"/><text x="720" y="120" class="l">Production Events</text><text x="720" y="140" class="sm">counts + quality</text><rect x="120" y="500" width="180" height="72" class="b" fill="#FFE4E6" stroke="#FB7185"/><text x="210" y="530" class="l">Downtime</text><text x="210" y="550" class="sm">reason + duration</text><rect x="375" y="500" width="180" height="72" class="b" fill="#F3E8FF" stroke="#A855F7"/><text x="465" y="530" class="l">OEE</text><text x="465" y="550" class="sm">availability / quality</text><rect x="630" y="500" width="180" height="72" class="b" fill="#ECFEFF" stroke="#06B6D4"/><text x="720" y="530" class="l">Traceability</text><text x="720" y="550" class="sm">part history</text><rect x="800" y="220" width="180" height="72" class="b" fill="#E0FCEB" stroke="#10B981"/><text x="890" y="250" class="l">Telemetry</text><text x="890" y="270" class="sm">temp / vibration</text><rect x="800" y="360" width="180" height="72" class="b" fill="#FEE2E2" stroke="#EF4444"/><text x="890" y="390" class="l">AI Alerts</text><text x="890" y="410" class="sm">maintenance alerts</text><rect x="800" y="500" width="180" height="72" class="b" fill="#EDE9FE" stroke="#6366F1"/><text x="890" y="530" class="l">Observability</text><text x="890" y="550" class="sm">health + metrics</text><line x1="390" y1="300" x2="300" y2="126" class="ln"/><line x1="490" y1="270" x2="465" y2="162" class="ln"/><line x1="590" y1="300" x2="720" y2="126" class="ln"/><line x1="390" y1="340" x2="300" y2="536" class="ln"/><line x1="490" y1="370" x2="465" y2="500" class="ln"/><line x1="590" y1="340" x2="720" y2="536" class="ln"/><line x1="590" y1="320" x2="800" y2="256" class="ln"/><line x1="890" y1="292" x2="890" y2="360" class="ln"/><line x1="890" y1="432" x2="890" y2="500" class="ln"/></svg>